<?xml version="1.0" encoding="UTF-8" ?>
<!DOCTYPE svg PUBLIC "-//W3C//DTD SVG 1.1//EN" "http://www.w3.org/Graphics/SVG/1.1/DTD/svg11.dtd">
<svg viewBox="0 0 158 158" version="1.1" xmlns="http://www.w3.org/2000/svg">
<path fill="transparent" d=" M 0.00 0.00 L 157.00 0.00 L 157.00 158.00 L 0.00 158.00 L 0.00 0.00 Z" />
<path fill="#f47503" d=" M 100.04 1.31 C 101.87 0.26 103.88 1.39 105.13 2.77 C 121.47 19.12 137.82 35.47 154.18 51.82 C 155.78 53.17 156.88 55.60 155.38 57.47 C 152.39 61.02 148.59 64.25 143.96 65.33 C 139.13 66.53 133.79 65.17 130.07 61.88 C 128.31 60.42 126.50 58.50 123.98 58.79 C 121.52 58.77 119.76 60.67 118.42 62.49 C 112.77 69.91 106.88 77.14 101.34 84.63 C 111.51 98.38 111.09 118.90 100.15 132.09 C 98.14 134.41 94.47 133.56 92.76 131.32 C 70.43 108.95 48.08 86.60 25.72 64.27 C 24.54 63.12 23.37 61.70 23.53 59.94 C 23.53 57.11 26.34 55.71 28.37 54.34 C 41.52 45.87 59.76 46.37 72.37 55.66 C 80.22 49.80 87.89 43.68 95.63 37.68 C 98.42 35.82 99.25 31.55 96.86 29.04 C 94.24 26.13 91.83 22.81 91.39 18.79 C 90.33 11.83 94.63 5.25 100.04 1.31 Z" />
<path fill="#f47503" d=" M 44.46 96.48 C 50.01 101.62 55.36 107.00 60.52 112.52 C 42.82 125.77 25.59 139.65 8.07 153.12 C 6.01 154.38 3.83 156.53 1.22 155.80 C 0.60 151.74 4.59 148.73 6.58 145.55 C 19.17 129.16 31.98 112.94 44.46 96.48 Z" />
</svg>
